<svg id="visual" viewBox="0 0 900 200" width="900" height="200" xmlns="http://www.w3.org/2000/svg" xmlns:xlink="http://www.w3.org/1999/xlink" version="1.1"><rect x="0" y="0" width="900" height="200" fill="#141414"></rect><path d="M0 29L25 27.2C50 25.3 100 21.7 150 19.3C200 17 250 16 300 15.2C350 14.3 400 13.7 450 14C500 14.3 550 15.7 600 17C650 18.3 700 19.7 750 20.3C800 21 850 21 875 21L900 21L900 0L875 0C850 0 800 0 750 0C700 0 650 0 600 0C550 0 500 0 450 0C400 0 350 0 300 0C250 0 200 0 150 0C100 0 50 0 25 0L0 0Z" fill="#bb004b"></path><path d="M0 16L25 17.7C50 19.3 100 22.7 150 22.3C200 22 250 18 300 16C350 14 400 14 450 14C500 14 550 14 600 15.8C650 17.7 700 21.3 750 23.3C800 25.3 850 25.7 875 25.8L900 26L900 0L875 0C850 0 800 0 750 0C700 0 650 0 600 0C550 0 500 0 450 0C400 0 350 0 300 0C250 0 200 0 150 0C100 0 50 0 25 0L0 0Z" fill="#bf2f55"></path><path d="M0 11L25 12.7C50 14.3 100 17.7 150 18.2C200 18.7 250 16.3 300 16.5C350 16.7 400 19.3 450 18.3C500 17.3 550 12.7 600 11.8C650 11 700 14 750 14.2C800 14.3 850 11.7 875 10.3L900 9L900 0L875 0C850 0 800 0 750 0C700 0 650 0 600 0C550 0 500 0 450 0C400 0 350 0 300 0C250 0 200 0 150 0C100 0 50 0 25 0L0 0Z" fill="#c34760"></path><path d="M0 19L25 17C50 15 100 11 150 10.7C200 10.3 250 13.7 300 15.2C350 16.7 400 16.3 450 15.7C500 15 550 14 600 14.7C650 15.3 700 17.7 750 18.2C800 18.7 850 17.3 875 16.7L900 16L900 0L875 0C850 0 800 0 750 0C700 0 650 0 600 0C550 0 500 0 450 0C400 0 350 0 300 0C250 0 200 0 150 0C100 0 50 0 25 0L0 0Z" fill="#c65b6b"></path><path d="M0 8L25 9.5C50 11 100 14 150 15.5C200 17 250 17 300 16.7C350 16.3 400 15.7 450 15.5C500 15.3 550 15.7 600 14.2C650 12.7 700 9.3 750 8.8C800 8.3 850 10.7 875 11.8L900 13L900 0L875 0C850 0 800 0 750 0C700 0 650 0 600 0C550 0 500 0 450 0C400 0 350 0 300 0C250 0 200 0 150 0C100 0 50 0 25 0L0 0Z" fill="#c86d78"></path><path d="M0 5L25 6C50 7 100 9 150 10.3C200 11.7 250 12.3 300 12.8C350 13.3 400 13.7 450 12.3C500 11 550 8 600 7.3C650 6.7 700 8.3 750 8.8C800 9.3 850 8.7 875 8.3L900 8L900 0L875 0C850 0 800 0 750 0C700 0 650 0 600 0C550 0 500 0 450 0C400 0 350 0 300 0C250 0 200 0 150 0C100 0 50 0 25 0L0 0Z" fill="#ca7e85"></path><path d="M0 5L25 5.5C50 6 100 7 150 7.8C200 8.7 250 9.3 300 8.8C350 8.3 400 6.7 450 5.8C500 5 550 5 600 5.5C650 6 700 7 750 7.2C800 7.3 850 6.7 875 6.3L900 6L900 0L875 0C850 0 800 0 750 0C700 0 650 0 600 0C550 0 500 0 450 0C400 0 350 0 300 0C250 0 200 0 150 0C100 0 50 0 25 0L0 0Z" fill="#ca8f92"></path><path d="M0 8L25 7.5C50 7 100 6 150 5.8C200 5.7 250 6.3 300 6.2C350 6 400 5 450 4.8C500 4.7 550 5.3 600 6.2C650 7 700 8 750 8.2C800 8.3 850 7.7 875 7.3L900 7L900 0L875 0C850 0 800 0 750 0C700 0 650 0 600 0C550 0 500 0 450 0C400 0 350 0 300 0C250 0 200 0 150 0C100 0 50 0 25 0L0 0Z" fill="#ca9fa1"></path><path d="M0 3L25 3.5C50 4 100 5 150 5.2C200 5.3 250 4.7 300 4.3C350 4 400 4 450 4.2C500 4.3 550 4.7 600 4.8C650 5 700 5 750 4.8C800 4.7 850 4.3 875 4.2L900 4L900 0L875 0C850 0 800 0 750 0C700 0 650 0 600 0C550 0 500 0 450 0C400 0 350 0 300 0C250 0 200 0 150 0C100 0 50 0 25 0L0 0Z" fill="#c9afb0"></path><path d="M0 1L25 1C50 1 100 1 150 1.3C200 1.7 250 2.3 300 2.3C350 2.3 400 1.7 450 1.7C500 1.7 550 2.3 600 2.5C650 2.7 700 2.3 750 2C800 1.7 850 1.3 875 1.2L900 1L900 0L875 0C850 0 800 0 750 0C700 0 650 0 600 0C550 0 500 0 450 0C400 0 350 0 300 0C250 0 200 0 150 0C100 0 50 0 25 0L0 0Z" fill="#d9d8ce"></path></svg>
