<svg id="visual" viewBox="0 0 900 200" width="900" height="200" xmlns="http://www.w3.org/2000/svg" xmlns:xlink="http://www.w3.org/1999/xlink" version="1.1"><rect x="0" y="0" width="900" height="200" fill="#141414"></rect><path d="M0 67L21.5 64C43 61 86 55 128.8 50.7C171.7 46.3 214.3 43.7 257.2 41C300 38.3 343 35.7 385.8 36.3C428.7 37 471.3 41 514.2 46.5C557 52 600 59 642.8 62.8C685.7 66.7 728.3 67.3 771.2 62.5C814 57.7 857 47.3 878.5 42.2L900 37L900 0L878.5 0C857 0 814 0 771.2 0C728.3 0 685.7 0 642.8 0C600 0 557 0 514.2 0C471.3 0 428.7 0 385.8 0C343 0 300 0 257.2 0C214.3 0 171.7 0 128.8 0C86 0 43 0 21.5 0L0 0Z" fill="#bb004b"></path><path d="M0 31L21.5 32.3C43 33.7 86 36.3 128.8 38.5C171.7 40.7 214.3 42.3 257.2 41.7C300 41 343 38 385.8 36.5C428.7 35 471.3 35 514.2 35.8C557 36.7 600 38.3 642.8 40.5C685.7 42.7 728.3 45.3 771.2 42.2C814 39 857 30 878.5 25.5L900 21L900 0L878.5 0C857 0 814 0 771.2 0C728.3 0 685.7 0 642.8 0C600 0 557 0 514.2 0C471.3 0 428.7 0 385.8 0C343 0 300 0 257.2 0C214.3 0 171.7 0 128.8 0C86 0 43 0 21.5 0L0 0Z" fill="#d35c74"></path><path d="M0 21L21.5 25.2C43 29.3 86 37.7 128.8 41C171.7 44.3 214.3 42.7 257.2 43C300 43.3 343 45.7 385.8 43.3C428.7 41 471.3 34 514.2 32.8C557 31.7 600 36.3 642.8 38.3C685.7 40.3 728.3 39.7 771.2 41C814 42.3 857 45.7 878.5 47.3L900 49L900 0L878.5 0C857 0 814 0 771.2 0C728.3 0 685.7 0 642.8 0C600 0 557 0 514.2 0C471.3 0 428.7 0 385.8 0C343 0 300 0 257.2 0C214.3 0 171.7 0 128.8 0C86 0 43 0 21.5 0L0 0Z" fill="#e794a0"></path><path d="M0 35L21.5 33.5C43 32 86 29 128.8 27.2C171.7 25.3 214.3 24.7 257.2 25.5C300 26.3 343 28.7 385.8 26.3C428.7 24 471.3 17 514.2 13.5C557 10 600 10 642.8 14.2C685.7 18.3 728.3 26.7 771.2 29.8C814 33 857 31 878.5 30L900 29L900 0L878.5 0C857 0 814 0 771.2 0C728.3 0 685.7 0 642.8 0C600 0 557 0 514.2 0C471.3 0 428.7 0 385.8 0C343 0 300 0 257.2 0C214.3 0 171.7 0 128.8 0C86 0 43 0 21.5 0L0 0Z" fill="#f6c9ce"></path><path d="M0 11L21.5 11.2C43 11.3 86 11.7 128.8 10.5C171.7 9.3 214.3 6.7 257.2 6.8C300 7 343 10 385.8 11C428.7 12 471.3 11 514.2 9.7C557 8.3 600 6.7 642.8 8.2C685.7 9.7 728.3 14.3 771.2 16.2C814 18 857 17 878.5 16.5L900 16L900 0L878.5 0C857 0 814 0 771.2 0C728.3 0 685.7 0 642.8 0C600 0 557 0 514.2 0C471.3 0 428.7 0 385.8 0C343 0 300 0 257.2 0C214.3 0 171.7 0 128.8 0C86 0 43 0 21.5 0L0 0Z" fill="#ffffff"></path></svg>